<?xml version="1.0" standalone="no"?>
<!DOCTYPE svg PUBLIC "-//W3C//DTD SVG 20010904//EN"
 "http://www.w3.org/TR/2001/REC-SVG-20010904/DTD/svg10.dtd">
<svg version="1.0" xmlns="http://www.w3.org/2000/svg"
 width="96.000000pt" height="96.000000pt" viewBox="0 0 96.000000 96.000000"
 preserveAspectRatio="xMidYMid meet">

<g transform="translate(0.000000,96.000000) scale(0.100000,-0.100000)"
fill="#000000" stroke="none">
<path d="M38 657 c10 -11 12 -51 10 -151 l-3 -136 75 0 c54 0 85 5 109 18 93
50 94 203 2 256 -46 27 -213 38 -193 13z m164 -27 c34 -42 36 -176 3 -227 -11
-17 -25 -23 -50 -23 l-35 0 0 141 0 142 33 -7 c17 -3 40 -15 49 -26z"/>
<path d="M407 652 c-35 -21 -67 -87 -67 -135 0 -49 22 -100 51 -121 l24 -17
-27 -49 c-18 -31 -22 -47 -13 -44 7 3 49 -2 93 -11 86 -17 103 -15 125 19 14
21 14 22 -14 18 -45 -7 -168 28 -162 45 4 10 16 13 42 8 100 -17 182 76 165
186 -9 55 -56 107 -104 114 -29 5 -31 4 -12 -4 32 -15 42 -50 42 -152 0 -82
-2 -92 -25 -114 -50 -51 -98 -21 -110 70 -10 81 2 153 31 182 19 19 20 23 6
23 -9 0 -30 -8 -45 -18z"/>
<path d="M678 657 c10 -11 12 -51 10 -151 l-3 -136 40 0 40 0 -3 75 c-4 75 -4
75 22 75 77 0 89 -127 13 -144 -12 -3 0 -3 28 -1 100 7 130 103 43 140 l-31
13 24 12 c31 17 39 29 39 62 0 44 -38 61 -144 66 -81 4 -89 3 -78 -11z m136
-10 c22 -16 26 -78 7 -101 -8 -9 -24 -16 -37 -16 -23 0 -24 3 -24 65 0 56 2
65 18 65 10 0 26 -6 36 -13z"/>
</g>
</svg>
